<?xml version="1.0" encoding="iso-8859-1"?>
<!-- Uploaded to: SVG Repo, www.svgrepo.com, Generator: SVG Repo Mixer Tools -->
<svg height="800px" width="800px" version="1.1" id="Layer_1" xmlns="http://www.w3.org/2000/svg" xmlns:xlink="http://www.w3.org/1999/xlink" 
	 viewBox="0 0 512 512" xml:space="preserve">
<path style="fill:#EAFFFF;" d="M434.087,489.739H77.913c-24.588,0-44.522-19.934-44.522-44.522V66.783
	c0-24.588,19.933-44.522,44.522-44.522h356.174c24.588,0,44.522,19.933,44.522,44.522v378.435
	C478.609,469.806,458.675,489.739,434.087,489.739z"/>
<path style="fill:#FFFF81;" d="M189.217,94.609c0,52.251-42.358,94.609-94.609,94.609S0,146.859,0,94.609S42.358,0,94.609,0
	S189.217,42.358,189.217,94.609z"/>
<path style="fill:#FFF145;" d="M144.696,94.609c0,27.662-22.424,50.087-50.087,50.087s-50.087-22.424-50.087-50.087
	s22.424-50.087,50.087-50.087S144.696,66.946,144.696,94.609z"/>
<path style="fill:#727C7C;" d="M512,55.652c0,4.61-3.738,8.348-8.348,8.348c-10.74,0-19.478,8.739-19.478,19.478
	c0,4.61-3.738,8.348-8.348,8.348c-4.61,0-8.348-3.738-8.348-8.348C467.478,72.739,458.74,64,448,64c-4.61,0-8.348-3.738-8.348-8.348
	s3.738-8.348,8.348-8.348c11.176,0,21.186,5.096,27.826,13.084c6.64-7.988,16.65-13.084,27.826-13.084
	C508.262,47.304,512,51.042,512,55.652z"/>
<path style="fill:#A9D5BB;" d="M512,345.043v144.696c0,12.295-9.966,22.261-22.261,22.261H22.261C9.966,512,0,502.034,0,489.739
	V345.043c0-12.295,9.966-22.261,22.261-22.261h467.478C502.034,322.783,512,332.749,512,345.043z"/>
<path style="fill:#EAFFFF;" d="M69.565,389.565c0-4.61,3.738-8.348,8.348-8.348h11.13c4.61,0,8.348,3.738,8.348,8.348
	c0,4.61-3.738,8.348-8.348,8.348h-11.13C73.303,397.913,69.565,394.175,69.565,389.565z M141.913,434.087
	c0-4.61-3.738-8.348-8.348-8.348H77.913c-4.61,0-8.348,3.738-8.348,8.348s3.738,8.348,8.348,8.348h55.652
	C138.175,442.435,141.913,438.697,141.913,434.087z M58.435,456.348H25.043c-4.61,0-8.348,3.738-8.348,8.348
	c0,4.61,3.738,8.348,8.348,8.348h33.391c4.61,0,8.348-3.738,8.348-8.348C66.783,460.085,63.045,456.348,58.435,456.348z
	 M189.217,459.13h-55.652c-4.61,0-8.348,3.738-8.348,8.348s3.738,8.348,8.348,8.348h55.652c4.61,0,8.348-3.738,8.348-8.348
	S193.828,459.13,189.217,459.13z M400.696,470.261H233.739c-4.61,0-8.348,3.738-8.348,8.348s3.738,8.348,8.348,8.348h166.957
	c4.61,0,8.348-3.738,8.348-8.348S405.306,470.261,400.696,470.261z M278.261,442.435h44.522c4.61,0,8.348-3.738,8.348-8.348
	s-3.738-8.348-8.348-8.348h-44.522c-4.61,0-8.348,3.738-8.348,8.348S273.651,442.435,278.261,442.435z M486.957,425.739h-89.043
	c-4.61,0-8.348,3.738-8.348,8.348s3.738,8.348,8.348,8.348h89.043c4.61,0,8.348-3.738,8.348-8.348S491.567,425.739,486.957,425.739z
	"/>
<path style="fill:#BCAE8A;" d="M483.162,189.217v136.263h-171.51H244.87H28.838V189.217H244.87h66.783H483.162z"/>
<path style="fill:#A07040;" d="M475.826,345.043v46.883c0,4.61-3.738,8.348-8.348,8.348s-8.348-3.738-8.348-8.348v-46.883
	c0-4.61,3.738-8.348,8.348-8.348S475.826,340.433,475.826,345.043z M40.475,336.696c-4.61,0-8.348,3.738-8.348,8.348v46.883
	c0,4.61,3.738,8.348,8.348,8.348s8.348-3.738,8.348-8.348v-46.883C48.823,340.433,45.085,336.696,40.475,336.696z M162.909,374.808
	c-4.61,0-8.348,3.738-8.348,8.348v42.161c0,4.61,3.738,8.348,8.348,8.348s8.348-3.738,8.348-8.348v-42.161
	C171.257,378.546,167.52,374.808,162.909,374.808z M349.09,374.808c-4.61,0-8.348,3.738-8.348,8.348v42.161
	c0,4.61,3.738,8.348,8.348,8.348c4.61,0,8.348-3.738,8.348-8.348v-42.161C357.438,378.546,353.701,374.808,349.09,374.808z"/>
<path style="fill:#CEA455;" d="M500.87,319.915v35.415c0,3.074-2.492,5.565-5.565,5.565H361.739H250.435H16.696
	c-3.073,0-5.565-2.491-5.565-5.565v-35.415c0-3.074,2.492-5.565,5.565-5.565h233.739h111.304h133.565
	C498.377,314.35,500.87,316.842,500.87,319.915z"/>
<path style="fill:#DBCB9C;" d="M512,191.685v3.098c0,3.073-2.492,5.565-5.565,5.565h-244.87h-11.13H5.565
	c-3.073,0-5.565-2.492-5.565-5.565v-3.098c0-2.047,1.124-3.929,2.927-4.9L121.2,123.1c0.811-0.437,1.717-0.666,2.638-0.666h19.455
	c0.92,0,1.828,0.228,2.638,0.666L256,182.368l110.069-59.268c0.811-0.437,1.717-0.666,2.638-0.666h19.455
	c0.92,0,1.828,0.228,2.638,0.666l118.273,63.685C510.876,187.756,512,189.638,512,191.685z"/>
<path style="fill:#C5EAD4;" d="M367.304,44.522L367.304,44.522c0,12.295-9.966,22.261-22.261,22.261H233.739
	c-12.295,0-22.261-9.966-22.261-22.261h-44.522c-12.295,0-22.261-9.966-22.261-22.261l0,0C144.696,9.966,154.662,0,166.957,0h77.913
	c12.295,0,22.261,9.966,22.261,22.261l0,0h77.913C357.338,22.261,367.304,32.227,367.304,44.522z"/>
<path style="fill:#DBCB9C;" d="M360.727,358.872H151.273V222.609h209.455V358.872z"/>
<path style="fill:#F4E7BB;" d="M122.435,228.174v-3.098c0-2.047,1.124-3.929,2.927-4.9l118.273-63.685
	c0.811-0.436,1.717-0.666,2.638-0.666h19.455c0.921,0,1.828,0.228,2.638,0.666l118.273,63.685c1.803,0.971,2.926,2.853,2.926,4.9
	v3.098c0,3.073-2.492,5.565-5.565,5.565H128C124.927,233.739,122.435,231.247,122.435,228.174z"/>
<path style="fill:#998C6E;" d="M322.783,272.696v94.609H189.217v-94.609c0-3.073,2.492-5.565,5.565-5.565h122.435
	C320.29,267.13,322.783,269.623,322.783,272.696z"/>
<path style="fill:#DDB961;" d="M384,353.307v35.415c0,3.073-2.492,5.565-5.565,5.565h-244.87c-3.073,0-5.565-2.492-5.565-5.565
	v-35.415c0-3.073,2.492-5.565,5.565-5.565h244.87C381.508,347.741,384,350.234,384,353.307z"/>
</svg>