<!DOCTYPE svg PUBLIC "-//W3C//DTD SVG 1.1//EN" "http://www.w3.org/Graphics/SVG/1.1/DTD/svg11.dtd">
<!-- Uploaded to: SVG Repo, www.svgrepo.com, Transformed by: SVG Repo Mixer Tools -->
<svg fill="#ffffff" height="233px" width="233px" version="1.1" id="Layer_1" xmlns="http://www.w3.org/2000/svg" xmlns:xlink="http://www.w3.org/1999/xlink" viewBox="-256 -256 1024.00 1024.00" xml:space="preserve" stroke="#ffffff">
<g id="SVGRepo_bgCarrier" stroke-width="0">
<rect x="-256" y="-256" width="1024.00" height="1024.00" rx="0" fill="#20c997" strokewidth="0"/>
</g>
<g id="SVGRepo_tracerCarrier" stroke-linecap="round" stroke-linejoin="round"/>
<g id="SVGRepo_iconCarrier"> <g> <g> <g> <path d="M364.783,102.854L247.27,60.085c-2.987-1.084-6.281,0.452-7.364,3.43l-21.385,58.752l128.307,46.703l21.385-58.761 C369.289,107.24,367.761,103.938,364.783,102.854z M276.122,88.748l-11.665,32.077c-1.254,3.465-4.531,5.623-8.013,5.623 c-0.973,0-1.954-0.171-2.918-0.521c-4.429-1.613-6.716-6.511-5.103-10.94l11.674-32.068c1.604-4.429,6.485-6.707,10.931-5.111 C275.447,79.421,277.743,84.32,276.122,88.748z M340.275,112.096l-11.674,32.077c-1.263,3.465-4.531,5.615-8.021,5.615 c-0.964,0-1.954-0.162-2.91-0.521c-4.437-1.604-6.724-6.502-5.103-10.931l11.674-32.077c1.613-4.429,6.528-6.724,10.931-5.094 C339.61,102.769,341.888,107.667,340.275,112.096z"/> <path d="M197.855,135.05c-1.664,0.777-2.918,2.15-3.558,3.883l-19.746,58.146l158.02,57.506l22.161-57.429 c1.237-3.413-0.606-7.364-4.173-8.67L203.111,134.82C201.388,134.197,199.536,134.282,197.855,135.05z M307.44,227.287 l11.674-32.077c1.613-4.429,6.528-6.733,10.94-5.103c4.429,1.613,6.716,6.511,5.094,10.931l-11.674,32.077 c-1.254,3.465-4.531,5.623-8.013,5.623c-0.973,0-1.963-0.171-2.918-0.521C308.105,236.605,305.827,231.707,307.44,227.287z M251.308,206.85l11.674-32.077c1.613-4.429,6.519-6.724,10.94-5.094c4.429,1.604,6.716,6.502,5.094,10.931l-11.674,32.077 c-1.254,3.465-4.531,5.615-8.013,5.615c-0.973,0-1.963-0.162-2.918-0.521C251.973,216.177,249.695,211.279,251.308,206.85z M217.78,149.25c4.437,1.604,6.724,6.502,5.103,10.931l-11.674,32.077c-1.263,3.465-4.531,5.615-8.021,5.615 c-0.964,0-1.954-0.162-2.91-0.521c-4.437-1.604-6.716-6.502-5.103-10.931l11.674-32.077 C208.462,149.915,213.377,147.628,217.78,149.25z"/> <path d="M147.1,277.9l154.743,56.32l24.585-63.71l-157.363-57.267L147.1,277.9z M278.258,307.468l11.674-32.068 c1.613-4.429,6.519-6.724,10.94-5.103c4.429,1.604,6.716,6.511,5.094,10.931l-11.674,32.077 c-1.254,3.465-4.531,5.623-8.013,5.623c-0.973,0-1.963-0.171-2.918-0.521C278.923,316.795,276.645,311.897,278.258,307.468z M222.125,287.039l11.674-32.077c1.613-4.429,6.528-6.733,10.931-5.103c4.437,1.613,6.716,6.511,5.103,10.94l-11.674,32.068 c-1.263,3.473-4.531,5.623-8.021,5.623c-0.964,0-1.954-0.162-2.91-0.521C222.791,296.366,220.512,291.459,222.125,287.039z M188.598,229.431c4.437,1.613,6.716,6.511,5.103,10.94l-11.674,32.068c-1.263,3.473-4.54,5.623-8.021,5.623 c-0.964,0-1.954-0.162-2.918-0.521c-4.429-1.604-6.716-6.511-5.094-10.931l11.674-32.077 C179.271,230.105,184.186,227.801,188.598,229.431z"/> <path d="M119.649,358.718l151.467,55.125l24.585-63.701l-154.086-56.09L119.649,358.718z M249.066,387.655l11.674-32.077 c1.613-4.429,6.536-6.724,10.94-5.103c4.429,1.613,6.716,6.511,5.094,10.94L265.1,393.483c-1.254,3.473-4.531,5.623-8.013,5.623 c-0.973,0-1.963-0.162-2.918-0.521C249.731,396.982,247.453,392.075,249.066,387.655z M192.942,367.226l11.674-32.077 c1.613-4.429,6.519-6.724,10.931-5.103c4.437,1.613,6.716,6.511,5.103,10.94l-11.674,32.068 c-1.263,3.473-4.531,5.623-8.021,5.623c-0.964,0-1.954-0.162-2.91-0.521C193.608,376.553,191.329,371.646,192.942,367.226z M159.415,309.617c4.437,1.613,6.716,6.511,5.103,10.94l-11.674,32.068c-1.263,3.473-4.54,5.623-8.021,5.623 c-0.964,0-1.954-0.162-2.918-0.521c-4.429-1.604-6.716-6.511-5.094-10.931l11.674-32.077 C150.088,310.292,155.011,307.996,159.415,309.617z"/> <path d="M256,0C114.842,0,0,114.842,0,256c0,70.502,28.646,134.434,74.914,180.779l1.954-5.163l21.257-62.583l-13.082-4.762 c-4.437-1.604-6.716-6.502-5.103-10.931c1.613-4.429,6.537-6.733,10.931-5.094l12.74,4.634l21.965-64.657l-11.349-4.13 c-4.437-1.613-6.716-6.511-5.103-10.94c1.613-4.429,6.528-6.716,10.931-5.094l11.008,4.002l21.956-64.657l-9.609-3.499 c-4.437-1.613-6.716-6.511-5.103-10.94c1.604-4.429,6.519-6.733,10.931-5.094l9.267,3.371l19.695-57.967 c0.845-2.321,2.074-4.369,3.482-6.255l-9.079-3.302c-4.437-1.613-6.724-6.511-5.103-10.94c1.604-4.42,6.519-6.716,10.931-5.094 l24.064,8.755l21.376-58.76c2.082-5.726,6.281-10.3,11.793-12.868c5.513-2.569,11.716-2.842,17.442-0.759L370.62,86.818 c11.81,4.301,17.929,17.408,13.628,29.227l-21.385,58.761l24.055,8.755c4.429,1.613,6.716,6.511,5.094,10.931 c-1.254,3.473-4.531,5.623-8.013,5.623c-0.964,0-1.954-0.162-2.918-0.521l-9.079-3.302c-0.128,2.287-0.469,4.591-1.297,6.852 l-22.101,57.276l9.131,3.328c4.429,1.613,6.716,6.511,5.103,10.931c-1.263,3.473-4.54,5.623-8.021,5.623 c-0.964,0-1.954-0.162-2.918-0.521l-9.438-3.439l-24.585,63.71l10.667,3.883c4.437,1.613,6.716,6.511,5.103,10.931 c-1.263,3.473-4.54,5.623-8.021,5.623c-0.964,0-1.954-0.162-2.918-0.521l-10.974-3.994l-24.585,63.701l12.211,4.446 c4.437,1.613,6.716,6.511,5.103,10.931c-1.263,3.473-4.54,5.623-8.021,5.623c-0.964,0-1.954-0.162-2.918-0.521l-12.518-4.557 l-27.281,70.682l-2.526,5.598C252.8,511.906,254.387,512,256,512c141.158,0,256-114.842,256-256S397.158,0,256,0z"/> <path d="M114.161,374.879l-21.231,62.507l-4.506,11.904c39.484,34.27,89.498,56.678,144.495,61.619l5.069-11.213l26.982-69.931 L114.161,374.879z M135.333,400.743l-11.674,32.077c-1.263,3.465-4.531,5.615-8.021,5.615c-0.964,0-1.954-0.162-2.91-0.521 c-4.437-1.604-6.716-6.502-5.103-10.931l11.674-32.077c1.613-4.42,6.519-6.733,10.931-5.094 C134.667,391.416,136.954,396.314,135.333,400.743z M191.456,421.172l-11.674,32.077c-1.254,3.464-4.531,5.615-8.013,5.615 c-0.973,0-1.963-0.162-2.918-0.521c-4.437-1.604-6.716-6.502-5.103-10.931l11.674-32.077c1.613-4.42,6.536-6.716,10.94-5.094 C190.791,411.845,193.078,416.743,191.456,421.172z M235.915,473.678c-1.254,3.465-4.531,5.615-8.013,5.615 c-0.973,0-1.963-0.162-2.918-0.521c-4.437-1.604-6.716-6.502-5.103-10.931l11.674-32.077c1.613-4.42,6.528-6.716,10.94-5.094 c4.429,1.604,6.716,6.502,5.094,10.931L235.915,473.678z"/> </g> </g> </g> </g>
</svg>