<?xml version="1.0" encoding="UTF-8" standalone="no" ?>
<!DOCTYPE svg PUBLIC "-//W3C//DTD SVG 1.1//EN" "http://www.w3.org/Graphics/SVG/1.1/DTD/svg11.dtd">
<svg xmlns="http://www.w3.org/2000/svg" xmlns:xlink="http://www.w3.org/1999/xlink" version="1.1" width="1080" height="1080" viewBox="0 0 1080 1080" xml:space="preserve">
<desc>Created with Fabric.js 5.2.4</desc>
<defs>
</defs>
<rect x="0" y="0" width="100%" height="100%" fill="transparent"></rect>
<g transform="matrix(1 0 0 1 540 540)" id="1a156eff-ca67-4cb2-8910-6372e1d26850"  >
</g>
<g transform="matrix(1 0 0 1 540 540)" id="15d40d1f-9139-417f-960c-c29b7762e2b8"  >
<rect style="stroke: none; stroke-width: 1; stroke-dasharray: none; stroke-linecap: butt; stroke-dashoffset: 0; stroke-linejoin: miter; stroke-miterlimit: 4; fill: rgb(16,185,129); fill-rule: nonzero; opacity: 1;" vector-effect="non-scaling-stroke"  x="-540" y="-540" rx="0" ry="0" width="1080" height="1080" />
</g>
<g transform="matrix(0 0 0 0 0 0)"  >
<g style=""   >
</g>
</g>
<g transform="matrix(1.08 0 0 1.08 540 540)"  >
<path style="stroke: none; stroke-width: 1; stroke-dasharray: none; stroke-linecap: butt; stroke-dashoffset: 0; stroke-linejoin: miter; stroke-miterlimit: 4; fill: rgb(255,255,255); fill-rule: nonzero; opacity: 1;"  transform=" translate(-256, -256)" d="M 512 256 C 512 256.9 512 257.8 512 258.7 C 511.6 295.2 478.4 320 441.9 320 L 344 320 C 317.5 320 296 341.5 296 368 C 296 371.4 296.4 374.7 297 377.9 C 299.1 388.09999999999997 303.5 397.9 307.8 407.79999999999995 C 313.90000000000003 421.59999999999997 319.90000000000003 435.29999999999995 319.90000000000003 449.79999999999995 C 319.90000000000003 481.59999999999997 298.3 510.49999999999994 266.50000000000006 511.79999999999995 C 263.00000000000006 511.9 259.50000000000006 511.99999999999994 255.90000000000006 511.99999999999994 C 114.6 512 0 397.4 0 256 C 0 114.60000000000002 114.6 0 256 0 C 397.4 0 512 114.6 512 256 z M 128 288 C 128 270.3268880054146 113.67311199458538 256 96 256 C 78.32688800541462 256 64 270.3268880054146 64 288 C 64 305.6731119945854 78.32688800541462 320 96 320 C 113.67311199458538 320 128 305.6731119945854 128 288 z M 128 192 C 145.67311199458538 192 160 177.67311199458538 160 160 C 160 142.32688800541462 145.67311199458538 128 128 128 C 110.32688800541462 128 96 142.32688800541462 96 160 C 96 177.67311199458538 110.32688800541462 192 128 192 z M 288 96 C 288 78.32688800541462 273.6731119945854 64 256 64 C 238.32688800541462 64 224 78.3268880054146 224 96 C 224 113.67311199458538 238.32688800541462 128 256 128 C 273.6731119945854 128 288 113.67311199458538 288 96 z M 384 192 C 401.6731119945854 192 416 177.67311199458538 416 160 C 416 142.32688800541462 401.6731119945854 128 384 128 C 366.3268880054146 128 352 142.32688800541462 352 160 C 352 177.67311199458538 366.3268880054146 192 384 192 z" stroke-linecap="round" />
</g>
</svg>