<?xml version="1.0" encoding="UTF-8" standalone="no" ?>
<!DOCTYPE svg PUBLIC "-//W3C//DTD SVG 1.1//EN" "http://www.w3.org/Graphics/SVG/1.1/DTD/svg11.dtd">
<svg xmlns="http://www.w3.org/2000/svg" xmlns:xlink="http://www.w3.org/1999/xlink" version="1.1" width="1080" height="1080" viewBox="0 0 1080 1080" xml:space="preserve">
<desc>Created with Fabric.js 5.2.4</desc>
<defs>
</defs>
<rect x="0" y="0" width="100%" height="100%" fill="transparent"></rect>
<g transform="matrix(1 0 0 1 540 540)" id="1a156eff-ca67-4cb2-8910-6372e1d26850"  >
</g>
<g transform="matrix(1 0 0 1 540 540)" id="15d40d1f-9139-417f-960c-c29b7762e2b8"  >
<rect style="stroke: none; stroke-width: 1; stroke-dasharray: none; stroke-linecap: butt; stroke-dashoffset: 0; stroke-linejoin: miter; stroke-miterlimit: 4; fill: rgb(16,185,129); fill-rule: nonzero; opacity: 1;" vector-effect="non-scaling-stroke"  x="-540" y="-540" rx="0" ry="0" width="1080" height="1080" />
</g>
<g transform="matrix(0 0 0 0 0 0)"  >
<g style=""   >
</g>
</g>
<g transform="matrix(1.07 0 0 1.07 540 540)"  >
<path style="stroke: none; stroke-width: 1; stroke-dasharray: none; stroke-linecap: butt; stroke-dashoffset: 0; stroke-linejoin: miter; stroke-miterlimit: 4; fill: rgb(255,255,255); fill-rule: nonzero; opacity: 1;"  transform=" translate(-319.95, -255.39)" d="M 74.6 373.2 C 116.3 409.3 182.6 455.7 240.7 446.9 C 246.79999999999998 446 252.79999999999998 444.4 258.7 442.4 C 249.5 430.09999999999997 241.39999999999998 418 234.5 407 C 212.6 372 205.7 331.8 208.6 293.4 C 188 297.5 169.39999999999998 306.4 153.89999999999998 318.79999999999995 C 147.39999999999998 323.99999999999994 137.59999999999997 320.09999999999997 139.09999999999997 311.79999999999995 C 145.49999999999997 278.29999999999995 172.09999999999997 250.89999999999995 207.29999999999995 245.49999999999994 C 209.89999999999995 245.09999999999994 212.59999999999997 244.79999999999995 215.19999999999996 244.69999999999993 L 234.59999999999997 113.39999999999992 C 236.59999999999997 99.59999999999992 242.59999999999997 80.69999999999992 259.59999999999997 67.49999999999991 C 278.2 53.2 310.5 37 363.2 32.2 C 362.4 31.500000000000004 361.59999999999997 30.800000000000004 360.8 30.1 C 340.6 14.5 288.4 -11.5 175.7 5.6 C 63 22.7 20.5 63 5.7 83.9 C 0 91.9 -0.8 102 0.6 111.8 L 24.8 276.1 C 30.3 313.40000000000003 46.3 348.70000000000005 74.6 373.3 z M 162.3 153.6 C 166.70000000000002 150.5 173.10000000000002 151.6 174.10000000000002 156.9 C 174.20000000000002 157.4 174.3 158 174.40000000000003 158.5 C 177.60000000000002 180.3 162.80000000000004 200.5 141.30000000000004 203.8 C 119.80000000000004 207.10000000000002 99.80000000000004 192 96.60000000000004 170.3 C 96.50000000000004 169.8 96.50000000000004 169.20000000000002 96.40000000000003 168.70000000000002 C 95.80000000000004 163.3 101.60000000000004 160.3 106.70000000000003 162.00000000000003 C 115.70000000000003 165.00000000000003 125.50000000000003 165.90000000000003 135.40000000000003 164.40000000000003 C 145.30000000000004 162.90000000000003 154.50000000000003 159.10000000000002 162.20000000000005 153.60000000000002 z M 261.6 390 C 291 436.9 341.1 500.9 399.20000000000005 509.7 C 457.30000000000007 518.5 523.7 472.2 565.3000000000001 436 C 593.6 411.5 609.6 376.2 615.1 338.8 L 639.3000000000001 174.5 C 640.7 164.7 639.9000000000001 154.6 634.2 146.6 C 619.4000000000001 125.69999999999999 576.9000000000001 85.39999999999999 464.20000000000005 68.3 C 351.5 51.2 299.4 77.2 279.2 92.8 C 271.4 98.8 267.7 108.2 266.3 118 L 242.1 282.3 C 236.6 319.6 241.7 358.1 261.7 390 z M 404.5 235.3 C 396.8 229.8 387.7 226 377.7 224.5 C 367.7 223 357.9 223.9 349 226.9 C 343.9 228.6 338.1 225.6 338.7 220.20000000000002 C 338.8 219.70000000000002 338.8 219.10000000000002 338.9 218.60000000000002 C 342.09999999999997 196.8 362.09999999999997 181.8 383.59999999999997 185.10000000000002 C 405.09999999999997 188.40000000000003 419.9 208.60000000000002 416.7 230.40000000000003 C 416.59999999999997 230.90000000000003 416.5 231.50000000000003 416.4 232.00000000000003 C 415.4 237.30000000000004 409 238.40000000000003 404.59999999999997 235.30000000000004 z M 540.7 250.8 C 539.7 256.1 533.3000000000001 257.2 528.9000000000001 254.10000000000002 C 521.2 248.60000000000002 512.1000000000001 244.8 502.1000000000001 243.3 C 492.1 241.8 482.30000000000007 242.70000000000002 473.4000000000001 245.70000000000002 C 468.30000000000007 247.4 462.5000000000001 244.4 463.1000000000001 239.00000000000003 C 463.2000000000001 238.50000000000003 463.2000000000001 237.90000000000003 463.30000000000007 237.40000000000003 C 466.50000000000006 215.60000000000002 486.50000000000006 200.60000000000002 508.00000000000006 203.90000000000003 C 529.5 207.20000000000005 544.3000000000001 227.40000000000003 541.1 249.20000000000005 C 541 249.70000000000005 540.9 250.30000000000004 540.8000000000001 250.80000000000004 z M 530 350.2 C 510.4 394.9 463.2 422.7 413.2 415.1 C 363.2 407.50000000000006 326.1 366.90000000000003 320.2 318.40000000000003 C 319.2 310.1 329.09999999999997 306.3 335.4 311.70000000000005 C 359.29999999999995 332.50000000000006 389 347.00000000000006 422.4 352.00000000000006 C 455.79999999999995 357.00000000000006 488.5 352.1000000000001 517.3 339.20000000000005 C 524.9 335.80000000000007 533.3 342.40000000000003 529.9 350.1 z" stroke-linecap="round" />
</g>
</svg>