<?xml version="1.0" encoding="UTF-8" standalone="no" ?>
<!DOCTYPE svg PUBLIC "-//W3C//DTD SVG 1.1//EN" "http://www.w3.org/Graphics/SVG/1.1/DTD/svg11.dtd">
<svg xmlns="http://www.w3.org/2000/svg" xmlns:xlink="http://www.w3.org/1999/xlink" version="1.1" width="1080" height="1080" viewBox="0 0 1080 1080" xml:space="preserve">
<desc>Created with Fabric.js 5.2.4</desc>
<defs>
</defs>
<rect x="0" y="0" width="100%" height="100%" fill="transparent"></rect>
<g transform="matrix(1 0 0 1 540 540)" id="1a156eff-ca67-4cb2-8910-6372e1d26850"  >
</g>
<g transform="matrix(1 0 0 1 540 540)" id="15d40d1f-9139-417f-960c-c29b7762e2b8"  >
<rect style="stroke: none; stroke-width: 1; stroke-dasharray: none; stroke-linecap: butt; stroke-dashoffset: 0; stroke-linejoin: miter; stroke-miterlimit: 4; fill: rgb(16,185,129); fill-rule: nonzero; opacity: 1;" vector-effect="non-scaling-stroke"  x="-540" y="-540" rx="0" ry="0" width="1080" height="1080" />
</g>
<g transform="matrix(0 0 0 0 0 0)"  >
<g style=""   >
</g>
</g>
<g transform="matrix(1.23 0 0 1.23 540 540)"  >
<path style="stroke: none; stroke-width: 1; stroke-dasharray: none; stroke-linecap: butt; stroke-dashoffset: 0; stroke-linejoin: miter; stroke-miterlimit: 4; fill: rgb(255,255,255); fill-rule: nonzero; opacity: 1;"  transform=" translate(-288, -256)" d="M 183.1 235.3 C 216.8 256 246 283.40000000000003 268.9 315.8 C 275.9 325.7 282.29999999999995 336.1 288 346.8 C 293.7 336 300.1 325.7 307.1 315.8 C 330 283.40000000000003 359.20000000000005 256 392.90000000000003 235.3 C 437.6 207.8 490.1 192 546 192 L 555.9 192 C 567 192 576 201 576 212.1 C 576 360.1 456.1 480 308.1 480 L 288 480 L 267.9 480 C 119.9 480 0 360.1 0 212.1 C 0 201 9 192 20.1 192 L 30 192 C 85.9 192 138.4 207.8 183.1 235.3 z M 301.5 37.6 C 317.2 54.5 362.6 109.4 385.9 202.2 C 347.9 223.79999999999998 314.5 253 288 287.79999999999995 C 261.5 252.99999999999994 228.1 223.89999999999995 190.1 202.19999999999996 C 213.29999999999998 109.39999999999996 258.7 54.49999999999997 274.5 37.599999999999966 C 278 33.9 282.9 32 288 32 C 293.1 32 298 33.9 301.5 37.6 z" stroke-linecap="round" />
</g>
</svg>