<?xml version="1.0" encoding="iso-8859-1"?>
<!-- Uploaded to: SVG Repo, www.svgrepo.com, Generator: SVG Repo Mixer Tools -->
<svg height="800px" width="800px" version="1.1" id="Layer_1" xmlns="http://www.w3.org/2000/svg" xmlns:xlink="http://www.w3.org/1999/xlink" 
	 viewBox="0 0 512 512" xml:space="preserve">
<path style="fill:#A9B9BB;" d="M445.217,489.739H66.783c-24.588,0-44.522-19.934-44.522-44.522V66.783
	c0-24.588,19.933-44.522,44.522-44.522h378.435c24.588,0,44.522,19.933,44.522,44.522v378.435
	C489.739,469.806,469.806,489.739,445.217,489.739z"/>
<path style="fill:#727C7C;" d="M308.87,189.217c0,4.61-3.738,8.348-8.348,8.348c-10.74,0-19.478,8.739-19.478,19.478
	c0,4.61-3.738,8.348-8.348,8.348s-8.348-3.738-8.348-8.348c0-10.74-8.738-19.478-19.478-19.478c-4.61,0-8.348-3.738-8.348-8.348
	c0-4.61,3.738-8.348,8.348-8.348c11.176,0,21.186,5.096,27.826,13.084c6.64-7.988,16.65-13.084,27.826-13.084
	C305.132,180.87,308.87,184.607,308.87,189.217z"/>
<path style="fill:#FFED8F;" d="M189.217,94.609c0,52.251-42.358,94.609-94.609,94.609S0,146.859,0,94.609S42.358,0,94.609,0
	S189.217,42.358,189.217,94.609z"/>
<path style="fill:#FFCD69;" d="M144.619,97.339c-1.418,26.391-23.264,47.357-50.01,47.357c-27.662,0-50.087-22.424-50.087-50.087
	c0-21.835,13.976-40.396,33.468-47.252c-0.049,0.905-0.077,1.814-0.077,2.73c0,27.662,22.424,50.087,50.087,50.087
	C133.827,100.174,139.418,99.168,144.619,97.339z"/>
<path style="fill:#C7D7D8;" d="M289.391,44.522L289.391,44.522c0,12.295-9.966,22.261-22.261,22.261h-77.913
	c-12.295,0-22.261-9.966-22.261-22.261h-44.522c-12.295,0-22.261-9.966-22.261-22.261l0,0C100.174,9.966,110.14,0,122.435,0h77.913
	c12.295,0,22.261,9.966,22.261,22.261l0,0h44.522C279.425,22.261,289.391,32.227,289.391,44.522z M178.087,256H77.913
	c-12.295,0-22.261,9.966-22.261,22.261l0,0c0,12.295,9.966,22.261,22.261,22.261h100.174c12.295,0,22.261-9.966,22.261-22.261l0,0
	C200.348,265.966,190.382,256,178.087,256z"/>
<path style="fill:#727C7C;" d="M512,411.826v77.913c0,12.295-9.966,22.261-22.261,22.261H22.261C9.966,512,0,502.034,0,489.739
	v-77.913c0-12.295,9.966-22.261,22.261-22.261h467.478C502.034,389.565,512,399.531,512,411.826z"/>
<path style="fill:#FFED8F;" d="M125.217,434.087H25.043c-4.61,0-8.348-3.738-8.348-8.348s3.738-8.348,8.348-8.348h100.174
	c4.61,0,8.348,3.738,8.348,8.348S129.828,434.087,125.217,434.087z M147.478,461.913H58.435c-4.61,0-8.348,3.738-8.348,8.348
	c0,4.61,3.738,8.348,8.348,8.348h89.043c4.61,0,8.348-3.738,8.348-8.348C155.826,465.651,152.088,461.913,147.478,461.913z
	 M192,417.391h-22.261c-4.61,0-8.348,3.738-8.348,8.348s3.738,8.348,8.348,8.348H192c4.61,0,8.348-3.738,8.348-8.348
	S196.61,417.391,192,417.391z"/>
<path style="fill:#D3D5BB;" d="M478.609,345.043v22.261H367.304v-22.261l11.13-200.348v-22.261h89.043v22.261L478.609,345.043z"/>
<path style="fill:#F2F2E7;" d="M434.087,345.043v22.261h-66.783v-22.261l11.13-200.348v-22.261h44.522v22.261L434.087,345.043z"/>
<path style="fill:#FFA47B;" d="M472.734,239.304h-99.555l2.783-50.087h93.99L472.734,239.304z M475.517,289.391h-105.12
	l-3.092,55.652v9.275h111.304v-9.275L475.517,289.391z"/>
<path style="fill:#FFC8A9;" d="M428.212,239.304h-55.033l2.783-50.087h49.468L428.212,239.304z M430.995,289.391h-60.599
	l-3.092,55.652v9.275h66.783v-9.275L430.995,289.391z"/>
<path style="fill:#FFCD69;" d="M467.478,55.652L467.478,55.652v89.043h-89.043V55.652l0,0c7.127-7.127,16.793-11.13,26.871-11.13
	h35.301C450.686,44.522,460.351,48.525,467.478,55.652z"/>
<path style="fill:#FFED8F;" d="M422.957,144.696h-44.522V55.652h44.522V144.696z"/>
<path style="fill:#D3D5BB;" d="M500.87,356.174v44.522H345.043v-44.522c0-6.147,4.983-11.13,11.13-11.13h133.565
	C495.886,345.043,500.87,350.027,500.87,356.174z"/>
<path style="fill:#FF7039;" d="M467.478,55.652h-89.043l27.665-46.108C409.652,3.623,416.051,0,422.957,0s13.304,3.623,16.857,9.544
	L467.478,55.652z M484.174,100.174H361.739c-3.073,0-5.565,2.492-5.565,5.565v27.826c0,6.147,4.983,11.13,11.13,11.13h111.304
	c6.147,0,11.13-4.983,11.13-11.13v-27.826C489.739,102.666,487.247,100.174,484.174,100.174z"/>
<path style="fill:#BCAE8A;" d="M512,411.826v33.391v44.522c0,12.295-9.966,22.261-22.261,22.261H322.783H211.478
	c-12.295,0-22.261-9.966-22.261-22.261v-11.13c0-18.442,14.949-33.391,33.391-33.391h89.043c6.147,0,11.13-4.983,11.13-11.13
	v-22.261c0-12.295,9.966-22.261,22.261-22.261h144.696C502.034,389.565,512,399.531,512,411.826z"/>
</svg>