<?xml version="1.0"?>
<svg width="66.3577" height="66.3577" xmlns="http://www.w3.org/2000/svg" xmlns:svg="http://www.w3.org/2000/svg">
 <defs>
  <clipPath id="clip-path">
   <path clip-rule="evenodd" d="m53.46,52.02a30.77,30.77 0 0 1 -22.56,9.81a31.16,31.16 0 0 1 -3.83,-0.24a34.01,34.01 0 0 1 -11.15,-3.64a31.01,31.01 0 0 1 -7.85,-6.23l1.28,-3.1l13.91,-6.21c0.62,3.72 7.81,8.18 7.81,8.18s7.21,-3.42 8.08,-8.21l12.78,6.28l1.53,3.36z" fill="none" id="svg_1"/>
  </clipPath>
  <clipPath id="clip-path-2">
   <path clip-rule="evenodd" d="m14.11,46.5l6.82,-3.05l10.21,13.98l10.32,-13.94l5.95,2.84l0,20.03l-33.3,0l0,-19.86z" fill="none" id="svg_2"/>
  </clipPath>
 </defs>
 <title/>
 <g class="layer">
  <title>Layer 1</title>
  <g data-name="Layer 2" id="Layer_2" transform="translate(-0.0407703 -0.0407703) matrix(1.07374 0 0 1.07374 0.0408414 0.0408414)">
   <g data-name="—ÎÓÈ 1" id="_ÎÓÈ_1">
    <circle cx="30.9" cy="30.9" fill="#3dbc93" id="svg_3" r="30.9"/>
    <path d="m23.25,38.68l15.91,0.12l0,12.92l-15.91,-0.12l0,-12.92z" fill="#f9dca4" fill-rule="evenodd" id="svg_4"/>
    <path d="m39.16,38.78l0,3.58a7.78,7.78 0 0 1 -0.09,1.18a6.53,6.53 0 0 1 -0.4,1.4c-5.37,4.17 -13.94,0.75 -15.3,-6.36l15.79,0.2z" fill-rule="evenodd" id="svg_5" opacity="0.11"/>
    <path d="m31.13,8.43c21.28,0 12.99,35.27 0,35.27c-12.27,0 -21.28,-35.27 0,-35.27z" fill="#ffe8be" fill-rule="evenodd" id="svg_6"/>
    <path d="m18.36,24.05c-3.07,1.33 -0.46,7.68 1.48,7.65a31.97,31.97 0 0 1 -1.48,-7.65z" fill="#f9dca4" fill-rule="evenodd" id="svg_7"/>
    <path d="m44.13,24.05c3.07,1.33 0.47,7.68 -1.46,7.65a31.98,31.98 0 0 0 1.46,-7.65z" fill="#f9dca4" fill-rule="evenodd" id="svg_8"/>
    <path d="m44.12,24.17s7.96,-11.78 -2.63,-16.33a11.88,11.88 0 0 0 -12.87,-5.22c-5.85,1.19 -8.02,4.08 -8.02,4.08s-5.53,5.01 -10.44,5.12a9.77,9.77 0 0 0 6.28,1.75c-0.67,1.68 -1.96,7.22 1.99,10.86c4.37,-2.87 8.02,-8.48 8.02,-8.48s0.98,3.26 0.2,4.86a18.88,18.88 0 0 0 7.92,-3.53c2.55,-2.04 3.9,-4.3 5.31,-4.33c3.26,-0.06 4.22,9.75 4.24,11.22z" fill="#ecbe6a" fill-rule="evenodd" id="svg_9"/>
    <path d="m53.46,52.02a30.77,30.77 0 0 1 -22.56,9.81a31.16,31.16 0 0 1 -3.83,-0.24a34.01,34.01 0 0 1 -11.15,-3.64a31.01,31.01 0 0 1 -7.85,-6.23l1.28,-3.1l13.91,-6.21c0.62,3.72 7.81,8.18 7.81,8.18s7.21,-3.42 8.08,-8.21l12.78,6.28l1.53,3.36z" fill="#498bd9" fill-rule="evenodd" id="svg_10"/>
    <g clip-path="url(#clip-path)" id="svg_11">
     <path d="m14.11,46.5l6.82,-3.05l10.21,13.98l10.32,-13.94l5.95,2.84l0,20.03l-33.3,0l0,-19.86z" fill="#545f69" fill-rule="evenodd" id="svg_12"/>
     <g clip-path="url(#clip-path-2)" id="svg_13">
      <path d="m37.79,42.88l0.73,0l0,21.38l-0.73,0l0,-21.38zm-14.77,0l0.73,0l0,21.38l-0.73,0l0,-21.38zm-2.99,0l0.74,0l0,21.38l-0.74,0l0,-21.38zm-2.94,0l0.73,0l0,21.38l-0.73,0l0,-21.38zm-2.98,0l0.73,0l0,21.38l-0.73,0l0,-21.38zm20.71,0l0.73,0l0,21.38l-0.73,0l0,-21.38zm-2.98,0l0.73,0l0,21.38l-0.73,0l0,-21.38zm-2.95,0l0.73,0l0,21.38l-0.73,0l0,-21.38zm-2.98,0l0.73,0l0,21.38l-0.73,0l0,-21.38zm20.79,0l0.73,0l0,21.38l-0.73,0l0,-21.38zm-2.98,0l0.73,0l0,21.38l-0.73,0l0,-21.38zm-2.95,0l0.73,0l0,21.38l-0.73,0l0,-21.38z" fill="#434955" fill-rule="evenodd" id="svg_14"/>
     </g>
    </g>
    <path d="m23.27,41.27l7.8,9.32l-6.31,3.55l-4.82,-10.59l3.33,-2.28z" fill="#58b0e0" fill-rule="evenodd" id="svg_15"/>
    <path d="m39.16,41.45l-8.09,9.14l6.52,3.55l4.77,-10.72l-3.2,-1.97z" fill="#58b0e0" fill-rule="evenodd" id="svg_16"/>
    <path d="m21.64,23.16l6.41,0a1.58,1.58 0 0 1 1.12,0.46l0,0a1.58,1.58 0 0 1 0.47,1.12l0,2.89a1.58,1.58 0 0 1 -1.59,1.59l-6.41,0a1.58,1.58 0 0 1 -1.12,-0.47l0,0a1.58,1.58 0 0 1 -0.46,-1.12l0,-2.89a1.58,1.58 0 0 1 0.46,-1.12l0,0a1.58,1.58 0 0 1 1.12,-0.46zm6.41,0.85l-6.41,0a0.73,0.73 0 0 0 -0.52,0.21l0,0a0.73,0.73 0 0 0 -0.21,0.52l0,2.89a0.73,0.73 0 0 0 0.21,0.52a0.73,0.73 0 0 0 0.52,0.21l6.41,0a0.73,0.73 0 0 0 0.74,-0.73l0,-2.89a0.73,0.73 0 0 0 -0.22,-0.52a0.73,0.73 0 0 0 -0.52,-0.21z" fill="#464449" fill-rule="evenodd" id="svg_17"/>
    <path d="m34.55,23.16l6.41,0a1.58,1.58 0 0 1 1.12,0.46l0,0a1.58,1.58 0 0 1 0.47,1.12l0,2.89a1.58,1.58 0 0 1 -1.59,1.59l-6.41,0a1.58,1.58 0 0 1 -1.12,-0.47l0,0a1.58,1.58 0 0 1 -0.46,-1.12l0,-2.89a1.58,1.58 0 0 1 0.46,-1.12l0,0a1.58,1.58 0 0 1 1.12,-0.46zm6.41,0.85l-6.41,0a0.73,0.73 0 0 0 -0.52,0.21l0,0a0.73,0.73 0 0 0 -0.21,0.52l0,2.89a0.73,0.73 0 0 0 0.21,0.52l0,0a0.73,0.73 0 0 0 0.52,0.21l6.41,0a0.73,0.73 0 0 0 0.74,-0.73l0,-2.89a0.73,0.73 0 0 0 -0.22,-0.52l0,0a0.73,0.73 0 0 0 -0.52,-0.21z" fill="#464449" fill-rule="evenodd" id="svg_18"/>
    <path d="m29.41,24.51l3.85,0l0,0.87l-3.85,0l0,-0.87z" fill="#464449" id="svg_19"/>
   </g>
  </g>
 </g>
</svg>