<?xml version="1.0" encoding="iso-8859-1"?>
<!-- Uploaded to: SVG Repo, www.svgrepo.com, Generator: SVG Repo Mixer Tools -->
<svg height="800px" width="800px" version="1.1" id="Layer_1" xmlns="http://www.w3.org/2000/svg" xmlns:xlink="http://www.w3.org/1999/xlink" 
	 viewBox="0 0 512 512" xml:space="preserve">
<path style="fill:#FFED8F;" d="M445.012,489.207H66.988c-24.562,0-44.473-19.912-44.473-44.473V66.71
	c0-24.562,19.912-44.473,44.473-44.473h378.024c24.562,0,44.473,19.912,44.473,44.473v378.024
	C489.485,469.296,469.574,489.207,445.012,489.207z"/>
<path style="fill:#FFFFB3;" d="M311.592,200.13H200.408c-12.281,0-22.237-9.955-22.237-22.237l0,0
	c0-12.281,9.955-22.237,22.237-22.237h111.184c12.281,0,22.237,9.955,22.237,22.237l0,0
	C333.828,190.175,323.873,200.13,311.592,200.13z"/>
<path style="fill:#A07040;" d="M150.376,322.432h-44.473c-12.281,0-22.237-9.955-22.237-22.237l0,0
	c0-6.141,4.978-11.118,11.118-11.118h66.71c6.141,0,11.118,4.978,11.118,11.118l0,0
	C172.612,312.477,162.657,322.432,150.376,322.432z"/>
<path style="fill:#FF8950;" d="M160.288,255.722H95.99c-7.667,0-14.793-3.949-18.857-10.451l-62.408-99.854
	c-9.442-15.105-14.447-32.56-14.447-50.373l0,0C0.278,42.552,42.83,0,95.322,0h65.635c52.491,0,95.044,42.552,95.044,95.044l0,0
	c0,17.813-5.005,35.267-14.447,50.373l-62.408,99.854C175.081,251.773,167.955,255.722,160.288,255.722z"/>
<path style="fill:#FFC8A9;" d="M128.139,255.722H95.99c-7.667,0-14.793-3.949-18.857-10.451l-62.408-99.854
	c-9.442-15.105-14.447-32.56-14.447-50.373l0,0C0.278,42.552,42.83,0,95.322,0h32.817V255.722z"/>
<path style="fill:#FFA47B;" d="M128.139,255.722H95.99c-7.667,0-14.793-3.949-18.857-10.451l-15.705-25.127V6.246
	C71.959,2.224,83.378,0,95.322,0h32.817V255.722z"/>
<path style="fill:#FF7039;" d="M256,95.044L256,95.044c0,17.814-5.005,35.267-14.447,50.374l-47.445,75.913V5.954
	C230.25,19.408,256,54.214,256,95.044z"/>
<path style="fill:#DDB961;" d="M465.429,265.22l35.175,246.224H122.58l39.332-127.831c3.304-10.738,10.55-19.828,20.282-25.443
	l216.983-125.183C426.445,217.256,460.977,234.057,465.429,265.22z"/>
<path style="fill:#CEA455;" d="M365.363,265.22l35.175,246.224H122.58l39.332-127.831c3.304-10.738,10.55-19.828,20.282-25.443
	l180.158-103.938C363.778,257.647,364.806,261.321,365.363,265.22z"/>
<path style="fill:#A07040;" d="M260.967,312.725l28.388,198.719H122.58l39.332-127.831c3.304-10.738,10.55-19.828,20.282-25.443
	L260.967,312.725z"/>
<path style="fill:#7F932A;" d="M456.13,511.444L456.13,511.444h-44.473h-55.592h-22.237h-44.473h-11.118h-55.592h-11.118h-55.592
	h-11.118h-66.71h-66.71l0,0c0-30.702,24.89-55.592,55.592-55.592h11.118v-5.559c0-21.492,17.422-38.914,38.914-38.914l0,0
	c11.043,0,21.004,4.607,28.086,11.996c2.314-19.283,18.718-34.232,38.624-34.232l0,0c19.906,0,36.31,14.95,38.624,34.232
	c7.082-7.388,17.043-11.996,28.086-11.996l0,0c11.043,0,21.004,4.607,28.086,11.996c2.314-19.283,18.718-34.232,38.624-34.232l0,0
	c17.313,0,31.977,11.31,37.029,26.941c5.517-3,11.841-4.704,18.562-4.704l0,0c21.492,0,38.914,17.422,38.914,38.914v6.673
	C437.031,462.118,456.13,484.55,456.13,511.444z"/>
<path style="fill:#606D11;" d="M411.657,501.44c8.211,1.667,15.758,5.152,22.221,10.004h-22.221h-55.592h-22.237h-44.473h-11.118
	h-55.592h-11.118h-55.592h-11.118h-66.71H33.632c9.292-6.98,20.84-11.118,33.356-11.118h11.118v-5.559
	c0-21.492,17.422-38.914,38.914-38.914l0,0c11.043,0,21.004,4.607,28.086,11.996c2.314-19.283,18.718-34.232,38.624-34.232l0,0
	c19.906,0,36.31,14.95,38.624,34.232c7.082-7.388,17.043-11.996,28.086-11.996l0,0c11.043,0,21.004,4.607,28.086,11.996
	c2.314-19.283,18.718-34.232,38.624-34.232l0,0c17.313,0,31.977,11.31,37.029,26.941c5.517-3,11.841-4.704,18.562-4.704l0,0
	c21.492,0,38.914,17.422,38.914,38.914v6.673H411.657z"/>
<path style="fill:#FFCD69;" d="M233.763,0h177.894c12.281,0,22.237,9.955,22.237,22.237l0,0c0,4.055-1.103,7.845-2.999,11.118h58.59
	c12.281,0,22.237,9.955,22.237,22.237l0,0c0,12.281-9.955,22.237-22.237,22.237H367.184c-12.281,0-22.237-9.955-22.237-22.237l0,0
	c0-4.055,1.103-7.845,2.999-11.118H233.763c-12.281,0-22.237-9.955-22.237-22.237l0,0C211.527,9.955,221.482,0,233.763,0z"/>
<path style="fill:#825E06;" d="M511.722,503.661c0,4.605-3.734,8.339-8.339,8.339H8.617c-4.605,0-8.339-3.734-8.339-8.339
	s3.734-8.339,8.339-8.339h494.767C507.989,495.322,511.722,499.056,511.722,503.661z"/>
</svg>