<?xml version="1.0" encoding="UTF-8" standalone="no" ?>
<!DOCTYPE svg PUBLIC "-//W3C//DTD SVG 1.1//EN" "http://www.w3.org/Graphics/SVG/1.1/DTD/svg11.dtd">
<svg xmlns="http://www.w3.org/2000/svg" xmlns:xlink="http://www.w3.org/1999/xlink" version="1.1" width="1080" height="1080" viewBox="0 0 1080 1080" xml:space="preserve">
<desc>Created with Fabric.js 5.2.4</desc>
<defs>
</defs>
<rect x="0" y="0" width="100%" height="100%" fill="transparent"></rect>
<g transform="matrix(1 0 0 1 540 540)" id="15d40d1f-9139-417f-960c-c29b7762e2b8"  >
<rect style="stroke: none; stroke-width: 1; stroke-dasharray: none; stroke-linecap: butt; stroke-dashoffset: 0; stroke-linejoin: miter; stroke-miterlimit: 4; fill: rgb(16,185,129); fill-rule: nonzero; opacity: 1;" vector-effect="non-scaling-stroke"  x="-540" y="-540" rx="0" ry="0" width="1080" height="1080" />
</g>
<g transform="matrix(1 0 0 1 540 540)" id="1a156eff-ca67-4cb2-8910-6372e1d26850"  >
</g>
<g transform="matrix(NaN NaN NaN NaN 0 0)"  >
<g style=""   >
</g>
</g>
<g transform="matrix(1.19 0 0 1.19 540 540)"  >
<path style="stroke: none; stroke-width: 1; stroke-dasharray: none; stroke-linecap: butt; stroke-dashoffset: 0; stroke-linejoin: miter; stroke-miterlimit: 4; fill: rgb(255,255,255); fill-rule: nonzero; opacity: 1;"  transform=" translate(-320, -256)" d="M 32 32 C 49.7 32 64 46.3 64 64 L 64 320 L 288 320 L 288 160 C 288 142.3 302.3 128 320 128 L 544 128 C 597 128 640 171 640 224 L 640 448 C 640 465.7 625.7 480 608 480 C 590.3 480 576 465.7 576 448 L 576 416 L 352 416 L 320 416 L 64 416 L 64 448 C 64 465.7 49.7 480 32 480 C 14.299999999999997 480 0 465.7 0 448 L 0 64 C 0 46.3 14.3 32 32 32 z M 176 128 C 220.18277998646346 128 256 163.8172200135365 256 208 C 256 252.18277998646346 220.1827799864635 288 176.00000000000003 288 C 131.81722001353654 288 96 252.18277998646346 96 208 C 96 163.81722001353654 131.81722001353654 128 176 128 z" stroke-linecap="round" />
</g>
</svg>