<?xml version="1.0" encoding="UTF-8" standalone="no" ?>
<!DOCTYPE svg PUBLIC "-//W3C//DTD SVG 1.1//EN" "http://www.w3.org/Graphics/SVG/1.1/DTD/svg11.dtd">
<svg xmlns="http://www.w3.org/2000/svg" xmlns:xlink="http://www.w3.org/1999/xlink" version="1.1" width="1080" height="1080" viewBox="0 0 1080 1080" xml:space="preserve">
<desc>Created with Fabric.js 5.2.4</desc>
<defs>
</defs>
<rect x="0" y="0" width="100%" height="100%" fill="transparent"></rect>
<g transform="matrix(1 0 0 1 540 540)" id="1a156eff-ca67-4cb2-8910-6372e1d26850"  >
</g>
<g transform="matrix(1 0 0 1 540 540)" id="15d40d1f-9139-417f-960c-c29b7762e2b8"  >
<rect style="stroke: none; stroke-width: 1; stroke-dasharray: none; stroke-linecap: butt; stroke-dashoffset: 0; stroke-linejoin: miter; stroke-miterlimit: 4; fill: rgb(16,185,129); fill-rule: nonzero; opacity: 1;" vector-effect="non-scaling-stroke"  x="-540" y="-540" rx="0" ry="0" width="1080" height="1080" />
</g>
<g transform="matrix(0 0 0 0 0 0)"  >
<g style=""   >
</g>
</g>
<g transform="matrix(1.06 0 0 1.06 540 540)"  >
<path style="stroke: none; stroke-width: 1; stroke-dasharray: none; stroke-linecap: butt; stroke-dashoffset: 0; stroke-linejoin: miter; stroke-miterlimit: 4; fill: rgb(255,255,255); fill-rule: nonzero; opacity: 1;"  transform=" translate(-195.13, -256)" d="M 192 48 C 192 21.490332008121914 213.49033200812192 0 240 0 C 266.5096679918781 0 288 21.490332008121904 288 47.999999999999986 C 288 74.50966799187809 266.5096679918781 96 240 96 C 213.49033200812192 96 192 74.50966799187809 192 48 z M 243.3 230.7 L 224.2 307 L 273.9 356.7 C 282.9 365.7 288 377.9 288 390.59999999999997 L 288 480 C 288 497.7 273.7 512 256 512 C 238.3 512 224 497.7 224 480 L 224 397.3 L 150.1 323.4 C 134.29999999999998 307.59999999999997 127.89999999999999 284.79999999999995 133.2 263.09999999999997 L 153.6 179.09999999999997 C 161.9 144.99999999999997 196.3 124.19999999999996 230.3 132.69999999999996 C 249.3 137.49999999999997 265.90000000000003 149.09999999999997 276.7 165.39999999999998 L 305.1 208 L 336 208 L 336 184 C 336 170.7 346.7 160 360 160 C 373.3 160 384 170.7 384 184 L 384 239.8 C 384 239.9 384 240 384 240 C 384 240 384 240.2 384 240.2 L 384 488 C 384 501.3 373.3 512 360 512 C 346.7 512 336 501.3 336 488 L 336 272 L 296.6 272 C 280.6 272 265.6 264 256.70000000000005 250.6 L 243.40000000000003 230.6 z M 81.1 471.9 L 117.3 334 C 120.3 338.2 123.7 342.2 127.39999999999999 345.9 L 169.29999999999998 387.79999999999995 L 142.9 488.1 C 138.4 505.20000000000005 120.9 515.4 103.80000000000001 510.90000000000003 C 86.70000000000002 506.4000000000001 76.50000000000001 488.90000000000003 81.00000000000001 471.8 z M 136.6 125.89999999999998 L 101.4 266.5 C 98.4 278.6 86.5 286.4 74.2 284.4 L 26.300000000000004 276.4 C 12.300000000000004 274.09999999999997 3.4000000000000057 260.09999999999997 7.100000000000005 246.39999999999998 L 31.9 155 C 41.4 120.2 73 96 109.1 96 L 113.3 96 C 128.9 96 140.4 110.7 136.6 125.8 z" stroke-linecap="round" />
</g>
</svg>