<?xml version="1.0" encoding="UTF-8" standalone="no" ?>
<!DOCTYPE svg PUBLIC "-//W3C//DTD SVG 1.1//EN" "http://www.w3.org/Graphics/SVG/1.1/DTD/svg11.dtd">
<svg xmlns="http://www.w3.org/2000/svg" xmlns:xlink="http://www.w3.org/1999/xlink" version="1.1" width="1080" height="1080" viewBox="0 0 1080 1080" xml:space="preserve">
<desc>Created with Fabric.js 5.2.4</desc>
<defs>
</defs>
<rect x="0" y="0" width="100%" height="100%" fill="transparent"></rect>
<g transform="matrix(1 0 0 1 540 540)" id="1a156eff-ca67-4cb2-8910-6372e1d26850"  >
</g>
<g transform="matrix(1 0 0 1 540 540)" id="15d40d1f-9139-417f-960c-c29b7762e2b8"  >
<rect style="stroke: none; stroke-width: 1; stroke-dasharray: none; stroke-linecap: butt; stroke-dashoffset: 0; stroke-linejoin: miter; stroke-miterlimit: 4; fill: rgb(16,185,129); fill-rule: nonzero; opacity: 1;" vector-effect="non-scaling-stroke"  x="-540" y="-540" rx="0" ry="0" width="1080" height="1080" />
</g>
<g transform="matrix(0 0 0 0 0 0)"  >
<g style=""   >
</g>
</g>
<g transform="matrix(1.07 0 0 1.07 540 540)"  >
<path style="stroke: none; stroke-width: 1; stroke-dasharray: none; stroke-linecap: butt; stroke-dashoffset: 0; stroke-linejoin: miter; stroke-miterlimit: 4; fill: rgb(255,255,255); fill-rule: nonzero; opacity: 1;"  transform=" translate(-224, -256)" d="M 160 112 C 160 76.7 188.7 48 224 48 C 259.3 48 288 76.7 288 112 L 288 160 L 160 160 L 160 112 z M 112 160 L 48 160 C 21.5 160 0 181.5 0 208 L 0 416 C 0 469 43 512 96 512 L 352 512 C 405 512 448 469 448 416 L 448 208 C 448 181.5 426.5 160 400 160 L 336 160 L 336 112 C 336 50.1 285.9 0 224 0 C 162.10000000000002 0 112 50.1 112 112 L 112 160 z M 136 208 C 149.25483399593904 208 160 218.74516600406096 160 232 C 160 245.25483399593904 149.25483399593904 256 136 256 C 122.74516600406096 256 112 245.25483399593904 112 232 C 112 218.74516600406096 122.74516600406096 208 136 208 z M 288 232 C 288 218.74516600406096 298.74516600406093 208 312 208 C 325.25483399593907 208 336 218.74516600406096 336 232 C 336 245.25483399593904 325.25483399593907 256 312 256 C 298.74516600406093 256 288 245.25483399593904 288 232 z" stroke-linecap="round" />
</g>
</svg>